<svg width="32" height="32" viewBox="0 0 32 32" fill="none" xmlns="http://www.w3.org/2000/svg">
<path d="M16.325 5.33337C17.0372 5.33729 18.8189 5.35452 20.712 5.43035L21.3832 5.45961C23.2892 5.54985 25.1936 5.70401 26.1381 5.96737C27.398 6.32131 28.3882 7.35404 28.7229 8.66313C29.2558 10.7419 29.3225 14.7992 29.3308 15.7811L29.332 15.9846V15.9988C29.332 15.9988 29.332 16.0038 29.332 16.0132L29.3308 16.2167C29.3225 17.1986 29.2558 21.2559 28.7229 23.3347C28.3836 24.6486 27.3933 25.6814 26.1381 26.0304C25.1936 26.2938 23.2892 26.4479 21.3832 26.5382L20.712 26.5674C18.8189 26.6432 17.0372 26.6604 16.325 26.6644L16.0125 26.6655H15.9986C15.9986 26.6655 15.994 26.6655 15.9848 26.6655L15.6725 26.6644C14.1653 26.6562 7.86346 26.588 5.85918 26.0304C4.5993 25.6764 3.60906 24.6438 3.27433 23.3347C2.74144 21.2559 2.67482 17.1986 2.6665 16.2167V15.7811C2.67482 14.7992 2.74144 10.7419 3.27433 8.66313C3.6137 7.34919 4.60394 6.31647 5.85918 5.96737C7.86346 5.40968 14.1653 5.34167 15.6725 5.33337H16.325ZM13.332 11.3322V20.6655L21.332 15.9988L13.332 11.3322Z" fill="#166AEA"/>
</svg>
